<svg width="186" height="333" viewBox="0 0 186 333" fill="none" xmlns="http://www.w3.org/2000/svg">
<rect y="31" width="186" height="302" fill="#E6CA85"/>
<g filter="url(#filter0_d_0_1)">
<path d="M78.1289 58.5039V87H72.5039V64.9883L65.7461 67.1367V62.7031L77.5234 58.5039H78.1289ZM101.047 81.1602C101.047 80.7565 100.93 80.3919 100.695 80.0664C100.461 79.7409 100.025 79.4414 99.3867 79.168C98.7617 78.8815 97.8568 78.6211 96.6719 78.3867C95.6042 78.1523 94.6081 77.8594 93.6836 77.5078C92.7721 77.1432 91.9779 76.707 91.3008 76.1992C90.6367 75.6914 90.1159 75.0924 89.7383 74.4023C89.3607 73.6992 89.1719 72.8984 89.1719 72C89.1719 71.1146 89.3607 70.2812 89.7383 69.5C90.1289 68.7188 90.6823 68.0286 91.3984 67.4297C92.1276 66.8177 93.013 66.3424 94.0547 66.0039C95.1094 65.6523 96.2943 65.4766 97.6094 65.4766C99.4453 65.4766 101.021 65.7695 102.336 66.3555C103.664 66.9414 104.68 67.7487 105.383 68.7773C106.099 69.793 106.457 70.9518 106.457 72.2539H100.832C100.832 71.707 100.715 71.2188 100.48 70.7891C100.259 70.3464 99.9076 70.0013 99.4258 69.7539C98.957 69.4935 98.3451 69.3633 97.5898 69.3633C96.9648 69.3633 96.4245 69.474 95.9688 69.6953C95.513 69.9036 95.1615 70.1901 94.9141 70.5547C94.6797 70.9062 94.5625 71.2969 94.5625 71.7266C94.5625 72.0521 94.6276 72.3451 94.7578 72.6055C94.901 72.8529 95.1289 73.0807 95.4414 73.2891C95.7539 73.4974 96.1576 73.6927 96.6523 73.875C97.1602 74.0443 97.7852 74.2005 98.5273 74.3438C100.051 74.6562 101.411 75.0664 102.609 75.5742C103.807 76.069 104.758 76.7461 105.461 77.6055C106.164 78.4518 106.516 79.5651 106.516 80.9453C106.516 81.8828 106.307 82.7422 105.891 83.5234C105.474 84.3047 104.875 84.9883 104.094 85.5742C103.312 86.1471 102.375 86.5964 101.281 86.9219C100.201 87.2344 98.9831 87.3906 97.6289 87.3906C95.6628 87.3906 93.9961 87.0391 92.6289 86.3359C91.2747 85.6328 90.2461 84.7409 89.543 83.6602C88.8529 82.5664 88.5078 81.4466 88.5078 80.3008H93.8398C93.8659 81.069 94.0612 81.6875 94.4258 82.1562C94.8034 82.625 95.2786 82.9635 95.8516 83.1719C96.4375 83.3802 97.069 83.4844 97.7461 83.4844C98.4753 83.4844 99.0807 83.3867 99.5625 83.1914C100.044 82.9831 100.409 82.7096 100.656 82.3711C100.917 82.0195 101.047 81.6159 101.047 81.1602ZM122.52 65.8672V69.8516H110.215V65.8672H122.52ZM113.262 60.6523H118.887V80.6328C118.887 81.2448 118.965 81.7135 119.121 82.0391C119.29 82.3646 119.538 82.5924 119.863 82.7227C120.189 82.8398 120.599 82.8984 121.094 82.8984C121.445 82.8984 121.758 82.8854 122.031 82.8594C122.318 82.8203 122.559 82.7812 122.754 82.7422L122.773 86.8828C122.292 87.0391 121.771 87.1628 121.211 87.2539C120.651 87.3451 120.033 87.3906 119.355 87.3906C118.118 87.3906 117.038 87.1888 116.113 86.7852C115.202 86.3685 114.499 85.7044 114.004 84.793C113.509 83.8815 113.262 82.6836 113.262 81.1992V60.6523Z" fill="white"/>
</g>
<path d="M41 0L0 31H186L145 0H41Z" fill="#EFDCAF"/>
<defs>
<filter id="filter0_d_0_1" x="60.7461" y="58.5039" width="67.0273" height="38.8867" filterUnits="userSpaceOnUse" color-interpolation-filters="sRGB">
<feFlood flood-opacity="0" result="BackgroundImageFix"/>
<feColorMatrix in="SourceAlpha" type="matrix" values="0 0 0 0 0 0 0 0 0 0 0 0 0 0 0 0 0 0 127 0" result="hardAlpha"/>
<feOffset dy="5"/>
<feGaussianBlur stdDeviation="2.5"/>
<feComposite in2="hardAlpha" operator="out"/>
<feColorMatrix type="matrix" values="0 0 0 0 0 0 0 0 0 0 0 0 0 0 0 0 0 0 0.15 0"/>
<feBlend mode="normal" in2="BackgroundImageFix" result="effect1_dropShadow_0_1"/>
<feBlend mode="normal" in="SourceGraphic" in2="effect1_dropShadow_0_1" result="shape"/>
</filter>
</defs>
</svg>
