<svg width="186" height="283" viewBox="0 0 186 283" fill="none" xmlns="http://www.w3.org/2000/svg">
<rect y="31" width="186" height="252" fill="#DBDBDC"/>
<g filter="url(#filter0_d_0_1)">
<path d="M78.4062 89.6055V94H58.9531V90.25L68.1523 80.3867C69.0768 79.3581 69.806 78.4531 70.3398 77.6719C70.8737 76.8776 71.2578 76.168 71.4922 75.543C71.7396 74.9049 71.8633 74.2995 71.8633 73.7266C71.8633 72.8672 71.7201 72.1315 71.4336 71.5195C71.1471 70.8945 70.724 70.4128 70.1641 70.0742C69.6172 69.7357 68.9401 69.5664 68.1328 69.5664C67.2734 69.5664 66.5312 69.7747 65.9062 70.1914C65.2943 70.6081 64.8255 71.1875 64.5 71.9297C64.1875 72.6719 64.0312 73.5117 64.0312 74.4492H58.3867C58.3867 72.7565 58.7904 71.207 59.5977 69.8008C60.4049 68.3815 61.5443 67.2552 63.0156 66.4219C64.487 65.5755 66.2318 65.1523 68.25 65.1523C70.2422 65.1523 71.9219 65.4779 73.2891 66.1289C74.6693 66.7669 75.7109 67.6914 76.4141 68.9023C77.1302 70.1003 77.4883 71.5326 77.4883 73.1992C77.4883 74.1367 77.3385 75.0547 77.0391 75.9531C76.7396 76.8385 76.3099 77.724 75.75 78.6094C75.2031 79.4818 74.5391 80.3672 73.7578 81.2656C72.9766 82.1641 72.1107 83.0951 71.1602 84.0586L66.2188 89.6055H78.4062ZM89.6641 77.3789V94H84.0391V72.8672H89.3125L89.6641 77.3789ZM88.8438 82.6914H87.3203C87.3203 81.1289 87.5221 79.7227 87.9258 78.4727C88.3294 77.2096 88.8958 76.1354 89.625 75.25C90.3542 74.3516 91.2201 73.668 92.2227 73.1992C93.2383 72.7174 94.3711 72.4766 95.6211 72.4766C96.6107 72.4766 97.5156 72.6198 98.3359 72.9062C99.1562 73.1927 99.8594 73.6484 100.445 74.2734C101.044 74.8984 101.5 75.7253 101.812 76.7539C102.138 77.7826 102.301 79.0391 102.301 80.5234V94H96.6367V80.5039C96.6367 79.5664 96.5065 78.8372 96.2461 78.3164C95.9857 77.7956 95.6016 77.431 95.0938 77.2227C94.599 77.0013 93.987 76.8906 93.2578 76.8906C92.5026 76.8906 91.8451 77.0404 91.2852 77.3398C90.7383 77.6393 90.2826 78.056 89.918 78.5898C89.5664 79.1107 89.2995 79.7227 89.1172 80.4258C88.9349 81.1289 88.8438 81.8841 88.8438 82.6914ZM121.059 89.3906V64H126.723V94H121.625L121.059 89.3906ZM107.699 83.6875V83.2773C107.699 81.6628 107.882 80.1979 108.246 78.8828C108.611 77.5547 109.145 76.4154 109.848 75.4648C110.551 74.5143 111.417 73.7786 112.445 73.2578C113.474 72.737 114.646 72.4766 115.961 72.4766C117.198 72.4766 118.279 72.737 119.203 73.2578C120.141 73.7786 120.935 74.5208 121.586 75.4844C122.25 76.4349 122.784 77.5612 123.188 78.8633C123.591 80.1523 123.884 81.5651 124.066 83.1016V84C123.884 85.4714 123.591 86.8385 123.188 88.1016C122.784 89.3646 122.25 90.4714 121.586 91.4219C120.935 92.3594 120.141 93.0885 119.203 93.6094C118.266 94.1302 117.172 94.3906 115.922 94.3906C114.607 94.3906 113.435 94.1237 112.406 93.5898C111.391 93.056 110.531 92.3073 109.828 91.3438C109.138 90.3802 108.611 89.2474 108.246 87.9453C107.882 86.6432 107.699 85.224 107.699 83.6875ZM113.324 83.2773V83.6875C113.324 84.5599 113.389 85.3737 113.52 86.1289C113.663 86.8841 113.891 87.5547 114.203 88.1406C114.529 88.7135 114.945 89.1628 115.453 89.4883C115.974 89.8008 116.605 89.957 117.348 89.957C118.311 89.957 119.105 89.7422 119.73 89.3125C120.355 88.8698 120.831 88.2643 121.156 87.4961C121.495 86.7279 121.69 85.8424 121.742 84.8398V82.2812C121.703 81.4609 121.586 80.7253 121.391 80.0742C121.208 79.4102 120.935 78.8438 120.57 78.375C120.219 77.9062 119.776 77.5417 119.242 77.2812C118.721 77.0208 118.103 76.8906 117.387 76.8906C116.658 76.8906 116.033 77.0599 115.512 77.3984C114.991 77.724 114.568 78.1732 114.242 78.7461C113.93 79.319 113.695 79.9961 113.539 80.7773C113.396 81.5456 113.324 82.3789 113.324 83.2773Z" fill="white"/>
</g>
<path d="M41 0L0 31H186V0H41Z" fill="#F5F5F5"/>
<defs>
<filter id="filter0_d_0_1" x="53.3867" y="64" width="78.3359" height="40.3906" filterUnits="userSpaceOnUse" color-interpolation-filters="sRGB">
<feFlood flood-opacity="0" result="BackgroundImageFix"/>
<feColorMatrix in="SourceAlpha" type="matrix" values="0 0 0 0 0 0 0 0 0 0 0 0 0 0 0 0 0 0 127 0" result="hardAlpha"/>
<feOffset dy="5"/>
<feGaussianBlur stdDeviation="2.5"/>
<feComposite in2="hardAlpha" operator="out"/>
<feColorMatrix type="matrix" values="0 0 0 0 0 0 0 0 0 0 0 0 0 0 0 0 0 0 0.15 0"/>
<feBlend mode="normal" in2="BackgroundImageFix" result="effect1_dropShadow_0_1"/>
<feBlend mode="normal" in="SourceGraphic" in2="effect1_dropShadow_0_1" result="shape"/>
</filter>
</defs>
</svg>
