<svg width="186" height="233" viewBox="0 0 186 233" fill="none" xmlns="http://www.w3.org/2000/svg">
<rect y="31" width="186" height="202" fill="#CAB69E"/>
<g filter="url(#filter0_d_0_1)">
<path d="M68.832 74.3398H71.8398C72.8034 74.3398 73.5977 74.1771 74.2227 73.8516C74.8477 73.513 75.3099 73.0443 75.6094 72.4453C75.9219 71.8333 76.0781 71.1237 76.0781 70.3164C76.0781 69.5872 75.9349 68.9427 75.6484 68.3828C75.375 67.8099 74.9518 67.3672 74.3789 67.0547C73.806 66.7292 73.0833 66.5664 72.2109 66.5664C71.5208 66.5664 70.8828 66.7031 70.2969 66.9766C69.7109 67.25 69.2422 67.6341 68.8906 68.1289C68.5391 68.6237 68.3633 69.2227 68.3633 69.9258H62.7188C62.7188 68.3633 63.1354 67.0026 63.9688 65.8438C64.8151 64.6849 65.9479 63.7799 67.3672 63.1289C68.7865 62.4779 70.349 62.1523 72.0547 62.1523C73.9818 62.1523 75.668 62.4648 77.1133 63.0898C78.5586 63.7018 79.6849 64.6068 80.4922 65.8047C81.2995 67.0026 81.7031 68.487 81.7031 70.2578C81.7031 71.1562 81.4948 72.0286 81.0781 72.875C80.6615 73.7083 80.0625 74.4635 79.2812 75.1406C78.513 75.8047 77.5755 76.3385 76.4688 76.7422C75.362 77.1328 74.1185 77.3281 72.7383 77.3281H68.832V74.3398ZM68.832 78.6172V75.707H72.7383C74.2878 75.707 75.6484 75.8828 76.8203 76.2344C77.9922 76.5859 78.9753 77.0938 79.7695 77.7578C80.5638 78.4089 81.1628 79.1836 81.5664 80.082C81.9701 80.9674 82.1719 81.9505 82.1719 83.0312C82.1719 84.3594 81.918 85.5443 81.4102 86.5859C80.9023 87.6146 80.1862 88.487 79.2617 89.2031C78.3503 89.9193 77.2826 90.4661 76.0586 90.8438C74.8346 91.2083 73.5 91.3906 72.0547 91.3906C70.8568 91.3906 69.6784 91.2279 68.5195 90.9023C67.3737 90.5638 66.332 90.0625 65.3945 89.3984C64.4701 88.7214 63.7279 87.875 63.168 86.8594C62.6211 85.8307 62.3477 84.6133 62.3477 83.207H67.9922C67.9922 83.9362 68.1745 84.5872 68.5391 85.1602C68.9036 85.7331 69.4049 86.1823 70.043 86.5078C70.694 86.8333 71.4167 86.9961 72.2109 86.9961C73.1094 86.9961 73.8776 86.8333 74.5156 86.5078C75.1667 86.1693 75.6615 85.7005 76 85.1016C76.3516 84.4896 76.5273 83.7799 76.5273 82.9727C76.5273 81.931 76.3385 81.0977 75.9609 80.4727C75.5833 79.8346 75.043 79.3659 74.3398 79.0664C73.6367 78.7669 72.8034 78.6172 71.8398 78.6172H68.832ZM93.8984 74.4766V91H88.2734V69.8672H93.5664L93.8984 74.4766ZM100.266 69.7305L100.168 74.9453C99.8945 74.9062 99.5625 74.8737 99.1719 74.8477C98.7943 74.8086 98.4492 74.7891 98.1367 74.7891C97.3424 74.7891 96.6523 74.8932 96.0664 75.1016C95.4935 75.2969 95.0117 75.5898 94.6211 75.9805C94.2435 76.3711 93.957 76.8464 93.7617 77.4062C93.5794 77.9661 93.4753 78.6042 93.4492 79.3203L92.3164 78.9688C92.3164 77.6016 92.4531 76.3451 92.7266 75.1992C93 74.0404 93.3971 73.0312 93.918 72.1719C94.4518 71.3125 95.1029 70.6484 95.8711 70.1797C96.6393 69.7109 97.5182 69.4766 98.5078 69.4766C98.8203 69.4766 99.1393 69.5026 99.4648 69.5547C99.7904 69.5938 100.057 69.6523 100.266 69.7305ZM117.012 86.3906V61H122.676V91H117.578L117.012 86.3906ZM103.652 80.6875V80.2773C103.652 78.6628 103.835 77.1979 104.199 75.8828C104.564 74.5547 105.098 73.4154 105.801 72.4648C106.504 71.5143 107.37 70.7786 108.398 70.2578C109.427 69.737 110.599 69.4766 111.914 69.4766C113.151 69.4766 114.232 69.737 115.156 70.2578C116.094 70.7786 116.888 71.5208 117.539 72.4844C118.203 73.4349 118.737 74.5612 119.141 75.8633C119.544 77.1523 119.837 78.5651 120.02 80.1016V81C119.837 82.4714 119.544 83.8385 119.141 85.1016C118.737 86.3646 118.203 87.4714 117.539 88.4219C116.888 89.3594 116.094 90.0885 115.156 90.6094C114.219 91.1302 113.125 91.3906 111.875 91.3906C110.56 91.3906 109.388 91.1237 108.359 90.5898C107.344 90.056 106.484 89.3073 105.781 88.3438C105.091 87.3802 104.564 86.2474 104.199 84.9453C103.835 83.6432 103.652 82.224 103.652 80.6875ZM109.277 80.2773V80.6875C109.277 81.5599 109.342 82.3737 109.473 83.1289C109.616 83.8841 109.844 84.5547 110.156 85.1406C110.482 85.7135 110.898 86.1628 111.406 86.4883C111.927 86.8008 112.559 86.957 113.301 86.957C114.264 86.957 115.059 86.7422 115.684 86.3125C116.309 85.8698 116.784 85.2643 117.109 84.4961C117.448 83.7279 117.643 82.8424 117.695 81.8398V79.2812C117.656 78.4609 117.539 77.7253 117.344 77.0742C117.161 76.4102 116.888 75.8438 116.523 75.375C116.172 74.9062 115.729 74.5417 115.195 74.2812C114.674 74.0208 114.056 73.8906 113.34 73.8906C112.611 73.8906 111.986 74.0599 111.465 74.3984C110.944 74.724 110.521 75.1732 110.195 75.7461C109.883 76.319 109.648 76.9961 109.492 77.7773C109.349 78.5456 109.277 79.3789 109.277 80.2773Z" fill="white"/>
</g>
<path d="M145 0L186 31H0V0H145Z" fill="#DDD0C0"/>
<defs>
<filter id="filter0_d_0_1" x="57.3477" y="61" width="70.3281" height="40.3906" filterUnits="userSpaceOnUse" color-interpolation-filters="sRGB">
<feFlood flood-opacity="0" result="BackgroundImageFix"/>
<feColorMatrix in="SourceAlpha" type="matrix" values="0 0 0 0 0 0 0 0 0 0 0 0 0 0 0 0 0 0 127 0" result="hardAlpha"/>
<feOffset dy="5"/>
<feGaussianBlur stdDeviation="2.5"/>
<feComposite in2="hardAlpha" operator="out"/>
<feColorMatrix type="matrix" values="0 0 0 0 0 0 0 0 0 0 0 0 0 0 0 0 0 0 0.15 0"/>
<feBlend mode="normal" in2="BackgroundImageFix" result="effect1_dropShadow_0_1"/>
<feBlend mode="normal" in="SourceGraphic" in2="effect1_dropShadow_0_1" result="shape"/>
</filter>
</defs>
</svg>
